PathFileType	4	(X/Y/Z)	C:/Users/opensim2020/Desktop/walking_exp_matlab/subject02_walking06_straight_04.trc																																																																																																																									
DataRate	CameraRate	NumFrames	NumMarkers	Units	OrigDataRate	OrigDataStartFrame	OrigNumFrames																																																																																																																					
100	100	9	41	mm	100	2709	216																																																																																																																					
Frame#	Time	LFHD			RFHD			LBHD			RBHD			C7			T10			CLAV			STRN			RBAK			LSHO			LUPA			LELB			LFRM			LWRA			LWRB			LFIN			RSHO			RUPA			RELB			RFRM			RWRA			RWRB			RFIN			LASI			RASI			LPSI			RPSI			LTHI			LKNE			LTIB			LANK			LHEE			LTOE			RTHI			RKNE			RTIB			RANK			RHEE			RTOE			*39			*40		
		X1	Y1	Z1	X2	Y2	Z2	X3	Y3	Z3	X4	Y4	Z4	X5	Y5	Z5	X6	Y6	Z6	X7	Y7	Z7	X8	Y8	Z8	X9	Y9	Z9	X10	Y10	Z10	X11	Y11	Z11	X12	Y12	Z12	X13	Y13	Z13	X14	Y14	Z14	X15	Y15	Z15	X16	Y16	Z16	X17	Y17	Z17	X18	Y18	Z18	X19	Y19	Z19	X20	Y20	Z20	X21	Y21	Z21	X22	Y22	Z22	X23	Y23	Z23	X24	Y24	Z24	X25	Y25	Z25	X26	Y26	Z26	X27	Y27	Z27	X28	Y28	Z28	X29	Y29	Z29	X30	Y30	Z30	X31	Y31	Z31	X32	Y32	Z32	X33	Y33	Z33	X34	Y34	Z34	X35	Y35	Z35	X36	Y36	Z36	X37	Y37	Z37	X38	Y38	Z38	X39	Y39	Z39	X40	Y40	Z40	X41	Y41	Z41
																																																																																																																												
55	0.54	-217.02626	1721.1322	969.71332	-217.55748	1709.48474	1113.72632	-347.53644	1646.39221	964.02789	-360.88116	1633.18298	1107.93689	-402.31342	1508.81958	1044.09265	-454.57434	1233.05115	1058.19153	-261.88052	1439.40845	1031.74988	-209.31302	1269.69031	1056.38525	-460.05688	1339.21875	1117.87756	-341.082	1472.94861	865.23358	-412.8858	1288.36865	790.91943	-462.95151	1161.0647	780.72296	-512.92737	1043.55835	754.75244	-512.72754	902.39038	751.67535	-559.67108	930.8847	738.92871	-575.99139	868.04083	723.43958	-321.79001	1488.12524	1227.45471	-304.80588	1302.70776	1324.44287	-239.56145	1169.16125	1351.43298	-155.13905	1080.8866	1360.26074	-53.16524	998.375	1329.40686	-87.11234	969.88342	1364.87378	-21.84788	940.80658	1364.06067	-202.96214	978.93713	943.14209	-233.80116	956.44983	1200.36731	-422.40463	1014.75226	1000.94067	-438.70987	1015.69513	1113.31384	-187.56247	679.11188	867.36792	-151.52734	481.85379	900.6521	-146.99989	287.2291	894.90674	-71.93385	74.48802	920.70319	-96.55251	36.08996	972.62018	83.36449	82.41859	916.15674	-385.50922	666.47949	1251.97803	-446.18503	464.28119	1215.65198	-557.38196	310.5777	1219.74304	-648.42212	138.25833	1185.87207	-698.68231	99.04947	1129.72815	-521.56989	39.17133	1199.47375	-318.84814	1790.86768	1056.21887	-2845.03198	1033.94348	3360.18066
56	0.55	-206.87608	1720.43457	968.18579	-207.6617	1708.8656	1111.8634	-337.24231	1645.42773	962.18921	-350.87592	1632.28394	1106.0968	-391.8125	1507.69775	1042.22046	-442.83463	1231.57056	1056.22937	-251.03404	1438.96594	1029.90601	-197.68388	1269.48169	1054.36584	-448.82239	1337.75623	1116.09814	-330.68457	1472.21301	863.42139	-402.05423	1287.20667	789.37994	-451.74323	1159.79395	779.64703	-501.73535	1042.56543	753.99829	-501.08612	900.88086	751.45776	-548.07819	929.32379	738.66656	-564.47418	866.35614	723.31989	-311.44528	1487.6958	1225.43848	-294.59061	1302.27197	1322.47498	-230.11281	1168.5603	1349.73792	-145.295	1080.23743	1357.93286	-42.81137	998.40277	1327.43042	-76.94012	969.47491	1362.43433	-11.57132	940.56927	1361.37964	-189.76427	979.52551	940.35907	-220.60854	955.97412	1197.7218	-409.19131	1013.68091	998.27411	-425.65518	1014.54535	1110.63123	-176.26347	677.80579	865.16718	-142.92668	479.75421	898.63098	-141.41263	284.72354	893.59332	-69.37846	70.68839	920.07214	-95.13584	33.96978	971.60272	85.88596	76.95914	915.76868	-374.59439	666.8205	1251.13501	-436.66275	465.11737	1216.10254	-550.91364	313.62241	1220.08752	-645.1864	142.87204	1187.0249	-695.6319	105.04848	1130.96558	-521.09283	39.17596	1199.78113	-308.90695	1790.17053	1054.60962	-2845.12842	1033.86938	3360.25122
57	0.56	-197.25037	1719.98022	965.97864	-197.76051	1708.20264	1109.92871	-327.33588	1644.74902	960.19604	-340.73297	1631.18176	1104.04004	-381.34152	1506.46021	1040.35034	-431.06589	1229.91626	1054.09644	-240.14284	1438.43542	1027.91492	-185.93147	1269.22009	1052.24402	-437.55078	1336.14819	1114.49963	-320.17056	1471.39624	861.5434	-391.1622	1286.0647	787.79871	-440.19113	1158.28345	778.5127	-489.90521	1040.75745	753.20166	-488.72546	899.26068	751.11432	-535.81854	927.38715	738.16534	-552.18665	864.34644	723.23773	-301.03604	1486.97876	1223.24756	-284.5069	1301.93835	1320.823	-220.84335	1167.5293	1347.57202	-135.84102	1079.4552	1355.92676	-32.98356	997.86517	1325.06555	-67.09175	968.82288	1359.92834	-1.73876	940.11963	1358.77563	-176.463	979.98553	937.51501	-207.2119	955.84839	1195.05493	-396.07599	1012.64532	995.44849	-412.341	1013.24725	1107.72754	-165.97229	675.87836	863.0014	-135.01982	477.20807	896.19147	-135.87724	282.02859	892.73657	-65.95646	68.66235	920.62506	-91.98497	35.50571	973.26373	90.64372	67.76907	913.27014	-363.37289	667.14679	1250.22278	-426.45724	466.00488	1216.66748	-543.92297	316.79593	1220.39294	-641.47742	147.76993	1188.10278	-692.01117	111.51417	1131.60022	-520.67883	39.29007	1200.45898	-299.34976	1789.34058	1052.64856	-2845.76709	1034.12756	3357.42017
58	0.57	-187.26814	1719.75549	963.99133	-187.75993	1707.9292	1107.99121	-316.96423	1643.86853	958.20129	-330.57785	1630.57727	1102.15076	-371.0592	1505.26709	1038.35767	-419.45596	1228.8877	1051.46753	-229.1678	1437.95447	1025.73596	-174.21381	1269.20459	1050.06165	-426.17984	1334.7605	1111.9458	-309.52322	1470.55212	859.54309	-380.00327	1284.67273	786.073	-428.56033	1156.61243	777.16797	-477.80981	1038.85327	752.58307	-475.7522	897.16541	750.7735	-522.99652	925.29736	737.68457	-539.08734	861.88013	723.17731	-290.55148	1486.21045	1221.20386	-274.49066	1301.32275	1318.81531	-211.7751	1166.48242	1345.71301	-126.50298	1078.45752	1353.87476	-23.51702	997.12781	1322.7052	-57.5401	967.90302	1357.45996	7.84157	939.1723	1356.08545	-163.19548	980.52234	934.79883	-193.49202	955.48474	1192.32312	-382.80548	1011.55096	992.36273	-398.97482	1011.90247	1104.58337	-155.85149	674.35474	861.00476	-128.21219	475.12741	893.27301	-129.27385	279.69864	893.1322	-61.16451	68.89365	918.89325	-88.46578	37.44494	972.40723	96.20638	59.21619	911.10687	-351.7934	667.4978	1249.27856	-415.6474	466.75931	1217.16919	-536.36566	320.13397	1220.68066	-637.32281	153.26834	1189.31763	-687.60754	118.53673	1132.14246	-520.15472	39.38241	1201.12561	-289.73117	1788.51514	1050.625	-2845.83301	1033.92786	3357.35693
59	0.58	-177.20793	1720.11841	962.00244	-177.76631	1708.18408	1105.92029	-306.82922	1643.70313	956.1709	-320.14664	1630.03162	1099.93042	-360.91367	1504.44177	1036.18542	-407.72583	1228.20056	1048.58423	-218.3121	1437.91394	1023.57642	-162.72772	1269.50635	1047.82532	-414.90924	1333.80505	1109.57629	-298.95782	1469.78882	857.32568	-368.32425	1283.0033	784.30322	-416.4039	1154.79956	775.83215	-464.60159	1036.63623	751.38965	-462.19788	895.04022	750.63367	-509.43536	922.62799	737.38422	-525.00671	859.14838	723.15369	-280.31503	1485.69128	1219.17029	-264.59702	1300.72449	1317.18298	-202.86798	1165.28809	1343.88794	-117.44701	1077.23914	1351.86853	-14.55106	996.13202	1320.12048	-48.32667	966.77917	1355.09485	17.06461	937.91748	1353.29089	-150.03358	980.87213	932.06079	-179.7309	955.02454	1189.51184	-369.63705	1010.80927	989.01233	-385.82434	1010.48602	1101.24524	-147.17377	674.86365	858.70184	-120.38231	474.94547	889.86694	-120.85007	279.84644	893.2962	-56.19555	67.60549	915.9574	-85.71667	39.22239	969.85223	101.01919	53.02154	910.30798	-339.67709	667.81494	1248.18555	-403.87488	467.57724	1217.80518	-527.92664	323.74902	1220.92456	-631.88538	158.93428	1190.26819	-682.16589	126.11777	1132.62817	-519.73468	39.24017	1201.59143	-280.02939	1788.37964	1048.63269	-2845.13696	1033.92065	3360.2124
60	0.59	-167.27205	1720.64771	960.00842	-167.83073	1708.70496	1103.95337	-296.47314	1643.60181	954.07275	-309.87469	1630.16492	1097.77649	-350.51669	1504.11865	1033.9447	-395.9187	1227.59741	1046.20789	-207.67818	1438.12292	1021.34271	-151.30981	1270.07202	1045.52698	-403.68695	1332.8291	1107.02551	-288.40405	1469.19727	854.91504	-356.70651	1281.68115	782.20972	-403.86423	1152.84595	774.34772	-451.15225	1033.89343	750.74445	-447.5535	892.68524	750.66608	-494.836	919.74359	737.10681	-510.16919	856.23602	723.198	-270.1109	1485.2522	1217.40356	-254.77988	1299.62268	1314.67932	-194.09773	1164.0304	1342.06177	-108.69336	1075.92273	1349.8407	-5.81051	994.8847	1317.74194	-39.52867	965.44336	1352.66089	25.82519	936.37927	1350.44812	-137.09804	981.10016	929.27844	-166.41176	954.28638	1186.68726	-356.80835	1010.83008	985.86737	-372.98483	1009.27936	1097.99194	-138.3313	675.83075	855.86627	-110.82121	476.34644	886.33197	-112.98386	281.11588	888.77502	-53.27783	66.7057	914.04376	-84.07309	40.21101	967.73541	103.77029	46.89713	910.29944	-327.08926	668.3653	1246.71985	-390.9566	468.44458	1218.69214	-518.33734	327.55695	1221.21411	-625.53461	165.03288	1191.07861	-675.38336	134.0239	1132.73596	-518.91571	39.2813	1202.05493	-270.32648	1788.61548	1046.52173	-2845.06494	1033.90466	3360.16113
61	0.6	-157.28734	1721.28259	957.94702	-157.84741	1709.27686	1101.86987	-286.3085	1644.25146	951.92957	-299.79254	1630.46069	1095.72729	-339.84308	1504.19226	1031.67712	-384.06018	1227.20593	1044.0697	-197.20087	1438.58752	1019.20532	-139.92239	1270.87671	1043.00342	-392.64642	1332.13208	1104.48816	-277.82318	1468.84656	852.43018	-344.72824	1280.30786	780.13428	-390.85471	1150.98315	772.86438	-437.14771	1031.66248	749.61096	-431.84073	890.36438	750.69135	-479.73926	916.86572	736.83411	-494.21371	853.17072	723.28265	-259.74249	1484.9657	1215.84167	-245.25876	1298.70911	1312.64001	-185.44896	1162.84363	1340.21545	-100.19819	1074.51465	1347.73279	2.57656	993.38666	1315.49756	-31.22933	963.96045	1350.29932	34.13134	934.50757	1347.63806	-124.23941	981.4187	926.50372	-152.26117	954.38318	1183.34253	-343.82629	1011.76978	982.77777	-360.18805	1008.6662	1095.10193	-129.19449	676.73926	852.90619	-99.89241	478.05884	883.70959	-104.52276	282.87973	882.29327	-51.62573	67.24558	913.86395	-83.06788	40.64363	967.48724	105.49062	44.31944	909.95599	-314.0704	668.94592	1244.99316	-376.59625	469.06885	1219.85291	-507.40103	331.44562	1221.62122	-618.00421	171.44374	1191.65356	-667.49146	142.37163	1132.17053	-518.02423	39.2317	1202.19421	-260.52667	1788.95117	1044.43982	-2845.74707	1034.05017	3357.30762
62	0.61	-146.97784	1721.81396	956.16766	-147.74071	1709.95129	1099.80273	-276.16327	1644.57813	949.77203	-289.54407	1630.85718	1093.62476	-329.1817	1504.73987	1029.63025	-372.44928	1227.24878	1042.04993	-186.71333	1439.23157	1016.94	-128.67815	1271.87573	1040.53796	-381.6105	1331.7821	1102.15344	-267.22794	1468.78809	849.96954	-332.19061	1279.05273	778.02118	-377.12985	1148.99451	771.51868	-422.40384	1029.31665	748.7644	-415.78207	888.06549	750.74078	-463.5715	914.06958	736.48676	-477.65228	850.15594	723.2337	-248.96954	1484.82483	1214.41199	-236.06851	1297.94946	1310.47803	-176.84598	1161.84387	1338.21362	-92.04175	1073.13123	1345.55457	10.2563	991.47345	1312.80554	-23.51085	962.36084	1347.83496	41.7493	932.58887	1344.83374	-111.66804	982.07684	923.60236	-139.01228	954.20734	1179.96375	-331.28021	1013.5611	980.14154	-347.38385	1008.84991	1092.87305	-119.49076	678.3382	850.43213	-89.19255	479.29074	882.11871	-96.74188	284.51685	878.02081	-50.51583	68.21306	914.24933	-82.51839	41.12175	967.38818	106.84853	42.04022	909.88696	-300.56393	669.25122	1243.06226	-360.79651	469.31693	1221.11279	-494.96594	335.13416	1222.10059	-609.05359	177.90663	1191.50745	-658.0097	151.07556	1131.35571	-516.8877	39.26706	1202.04895	-250.57062	1789.47253	1042.33423	-2845.25342	1033.8186	3360.21558
63	0.62	-136.73982	1722.77026	954.28375	-137.74298	1710.82422	1097.76062	-265.79056	1645.07727	947.75848	-279.45782	1631.69885	1091.59375	-318.67374	1505.42322	1027.73413	-360.97464	1227.51147	1040.31543	-176.35626	1440.08557	1014.93707	-117.62101	1273.0033	1038.09265	-370.5769	1331.66833	1099.77283	-256.44141	1468.94739	847.6629	-319.28726	1277.89917	776.0368	-363.2135	1147.53979	769.93695	-406.78406	1027.01343	747.81476	-398.88034	886.00818	751.01178	-446.78543	911.26453	736.03894	-459.4086	846.96283	723.4267	-238.21765	1485.18384	1212.8739	-227.05098	1297.50989	1308.22119	-168.4142	1161.33423	1336.4176	-84.18659	1071.89783	1343.26123	17.55964	989.74139	1310.49084	-16.37653	960.7226	1345.39551	48.66656	930.55328	1342.15771	-99.75058	982.94995	920.42676	-126.24392	954.21185	1176.31592	-319.15533	1015.62866	977.81836	-334.63431	1009.4967	1091.33997	-108.38571	680.02094	848.80536	-79.14075	480.14703	881.17914	-90.19167	285.30377	875.88745	-48.87487	68.60554	914.88257	-81.75205	41.29024	967.04498	108.12409	39.94013	911.64258	-286.55692	669.20807	1240.98914	-343.60254	469.0788	1222.55627	-480.9371	338.40137	1222.83813	-598.30511	184.18663	1191.29236	-646.58136	159.93411	1130.20923	-515.75574	39.15814	1201.35889	-240.61263	1790.22632	1040.29651	-2845.25269	1033.98877	3360.31592
